<?xml version="1.0" standalone="no"?>
<!DOCTYPE svg PUBLIC "-//W3C//DTD SVG 20010904//EN"
 "http://www.w3.org/TR/2001/REC-SVG-20010904/DTD/svg10.dtd">
<svg version="1.0" xmlns="http://www.w3.org/2000/svg"
 width="571.000000pt" height="340.000000pt" viewBox="0 0 571.000000 340.000000"
 preserveAspectRatio="xMidYMid meet">

<g transform="translate(0.000000,340.000000) scale(0.100000,-0.100000)"
fill="#000000" stroke="none">
<path d="M3783 3262 c80 -84 87 -110 58 -209 -27 -89 -26 -135 0 -191 26 -52
34 -56 90 -45 52 10 57 22 25 56 -34 37 -60 109 -52 149 17 90 17 108 6 143
-21 64 -129 165 -176 165 -11 0 6 -24 49 -68z"/>
<path d="M4290 3077 c0 -7 6 -36 14 -63 14 -48 34 -294 23 -294 -2 0 -29 11
-58 24 -83 38 -162 49 -255 38 -206 -25 -376 -173 -438 -381 -20 -67 -21 -200
-2 -262 32 -103 112 -224 177 -265 22 -14 39 -30 37 -37 -5 -15 -224 -125
-258 -129 -14 -2 -26 -10 -28 -19 -10 -53 339 -81 504 -39 345 87 624 414 624
732 0 151 -63 351 -159 498 -99 154 -181 243 -181 197z m160 -319 c7 -18 16
-42 21 -53 21 -46 49 -187 53 -265 9 -188 -58 -371 -181 -492 -80 -80 -100
-95 -173 -136 -88 -49 -195 -81 -297 -88 -94 -7 -118 1 -69 24 54 24 186 130
272 218 231 237 344 484 344 752 0 78 10 91 30 40z m-240 -97 c30 -12 67 -31
82 -43 l28 -23 -16 -60 c-45 -175 -118 -317 -227 -443 -60 -70 -179 -182 -194
-182 -21 0 -95 53 -133 96 -18 21 -47 67 -63 103 -27 56 -30 76 -31 155 -1
111 18 172 78 253 109 149 306 208 476 144z"/>
<path d="M3075 2960 c-3 -6 0 -12 7 -14 118 -34 179 -83 227 -181 40 -83 101
-144 182 -186 l63 -31 33 38 c42 50 40 77 -7 85 -65 11 -125 51 -225 155 -64
66 -116 110 -145 123 -48 22 -125 28 -135 11z"/>
<path d="M2965 2271 c-43 -19 -104 -81 -129 -130 -26 -50 0 -47 59 7 30 28 71
56 91 62 42 14 126 7 158 -13 11 -7 51 -26 89 -40 55 -22 83 -27 155 -27 48 0
93 4 100 9 11 6 11 20 3 67 -14 72 -22 81 -58 65 -53 -24 -161 -25 -250 -2
-100 26 -165 26 -218 2z"/>
<path d="M1895 1647 c-408 -200 -798 -450 -1008 -644 -27 -25 -50 -43 -52 -41
-3 2 11 90 29 194 48 267 79 544 64 560 -7 6 -213 -16 -398 -44 l-115 -17 -3
-763 c-2 -652 0 -763 12 -760 8 2 31 24 53 49 545 651 893 956 1368 1197 110
56 121 69 200 228 42 85 52 124 34 124 -8 0 -90 -38 -184 -83z"/>
<path d="M2320 1599 c-91 -38 -172 -77 -181 -87 -19 -20 -79 -106 -195 -279
-100 -148 -212 -373 -203 -402 2 -6 38 16 79 50 41 34 116 89 165 121 75 49
100 73 148 141 33 44 114 150 180 234 124 156 211 293 185 293 -7 -1 -87 -32
-178 -71z"/>
<path d="M4991 1589 c-366 -117 -674 -178 -971 -195 l-120 -7 -52 -86 c-28
-47 -86 -138 -128 -201 -186 -278 -240 -406 -240 -563 0 -75 -9 -68 105 -86
58 -10 133 -17 420 -43 157 -15 892 -18 1016 -5 l76 8 6 342 c3 188 13 423 21
522 9 99 20 220 24 268 4 49 5 90 2 92 -3 2 -74 -19 -159 -46z m-301 -373 c0
-2 -15 -79 -34 -172 -19 -93 -39 -213 -44 -267 -5 -54 -12 -101 -16 -104 -9
-10 -622 -17 -701 -8 l-67 7 7 36 c9 55 85 236 138 334 l47 86 92 7 c119 9
434 52 507 70 64 15 71 16 71 11z"/>
<path d="M2770 1561 c-47 -20 -126 -52 -175 -69 l-90 -33 -95 -111 c-133 -157
-153 -185 -139 -194 7 -4 44 -15 83 -25 39 -9 107 -28 151 -43 133 -42 317
-105 321 -109 2 -2 -32 -18 -75 -36 l-79 -32 -143 45 c-79 26 -181 54 -225 63
l-82 17 -63 -38 c-79 -48 -249 -175 -249 -186 0 -10 26 -15 133 -30 100 -13
364 -70 532 -114 126 -34 131 -34 150 -17 23 21 173 111 228 137 29 14 53 41
101 114 35 52 84 119 111 148 26 29 44 57 39 61 -5 4 -128 47 -274 95 -146 49
-268 91 -272 95 -5 4 30 19 77 34 l84 28 103 -35 c57 -19 153 -51 215 -70
l112 -35 63 25 c100 41 299 147 295 159 -2 5 -17 11 -33 13 -16 2 -96 19 -179
38 -142 32 -189 44 -415 109 -52 15 -102 29 -110 30 -8 2 -53 -13 -100 -34z"/>
<path d="M3705 1344 c-33 -20 -116 -64 -185 -99 l-125 -63 -91 -113 c-112
-139 -162 -214 -197 -298 -27 -63 -56 -205 -44 -217 3 -3 26 8 50 25 25 17 92
55 150 86 103 55 105 57 127 110 23 57 121 209 259 402 90 127 137 203 124
203 -4 0 -35 -16 -68 -36z"/>
</g>
</svg>
