<?xml version="1.0" standalone="no"?>
<!DOCTYPE svg PUBLIC "-//W3C//DTD SVG 20010904//EN"
 "http://www.w3.org/TR/2001/REC-SVG-20010904/DTD/svg10.dtd">
<svg version="1.0" xmlns="http://www.w3.org/2000/svg"
 width="800.000000pt" height="801.000000pt" viewBox="0 0 800.000000 801.000000"
 preserveAspectRatio="xMidYMid meet">

<g transform="translate(0.000000,801.000000) scale(0.100000,-0.100000)"
fill="#000000" stroke="none">
<path d="M1998 8003 c1101 -2 2903 -2 4005 0 1101 1 200 2 -2003 2 -2203 0
-3104 -1 -2002 -2z"/>
<path d="M5023 6242 c80 -84 87 -110 58 -209 -24 -82 -26 -131 -7 -176 27 -63
37 -70 90 -62 26 4 50 14 53 21 3 7 -8 27 -24 43 -44 44 -57 100 -42 177 20
103 -13 173 -117 245 -77 53 -82 34 -11 -39z"/>
<path d="M5530 6057 c0 -7 6 -36 14 -63 15 -52 33 -294 22 -294 -4 0 -24 9
-44 19 -179 91 -416 48 -568 -105 -161 -161 -200 -398 -99 -595 33 -63 96
-139 136 -165 22 -14 39 -30 37 -37 -5 -15 -224 -125 -258 -129 -14 -2 -26
-10 -28 -19 -2 -13 13 -21 65 -35 54 -15 103 -19 233 -19 185 0 248 13 384 82
138 70 289 217 360 352 62 118 86 210 86 327 0 58 -4 106 -10 109 -5 3 -10 19
-10 34 0 56 -75 239 -140 341 -96 151 -180 243 -180 197z m150 -290 c0 -1 12
-34 26 -72 40 -107 55 -190 56 -305 1 -126 -16 -203 -72 -315 -99 -202 -339
-356 -577 -372 -94 -6 -118 2 -69 25 54 24 186 130 273 219 227 231 343 483
343 746 0 44 4 77 10 77 6 0 10 -1 10 -3z m-229 -126 c31 -12 68 -32 82 -45
26 -24 26 -24 11 -82 -38 -149 -91 -261 -176 -376 -71 -95 -221 -248 -244
-248 -20 0 -102 56 -132 89 -12 14 -37 55 -56 91 -93 180 -31 411 141 526 113
75 250 91 374 45z"/>
<path d="M4315 5940 c-3 -6 0 -12 7 -14 118 -34 179 -83 227 -181 40 -83 101
-144 182 -186 l63 -31 33 38 c42 50 40 77 -7 85 -65 10 -122 50 -224 154 -65
66 -118 111 -146 124 -48 22 -125 28 -135 11z"/>
<path d="M4205 5251 c-65 -29 -155 -144 -132 -168 4 -3 31 17 62 45 88 81 157
91 266 39 96 -45 146 -57 232 -57 108 0 111 3 98 76 -14 72 -22 81 -58 65 -53
-24 -161 -25 -250 -2 -101 26 -165 26 -218 2z"/>
<path d="M3115 4616 c-214 -107 -314 -160 -430 -231 -204 -124 -445 -298 -558
-402 -27 -25 -50 -43 -53 -40 -3 2 11 92 30 198 35 189 61 388 68 499 l3 55
-75 -3 c-41 -2 -158 -16 -260 -30 l-185 -27 -3 -763 c-2 -633 0 -763 11 -760
8 2 42 36 78 77 35 41 97 113 138 160 435 507 779 794 1211 1011 l98 49 49 88
c50 89 93 183 93 202 0 21 -26 10 -215 -83z"/>
<path d="M3551 4576 c-188 -82 -160 -55 -345 -330 -123 -182 -244 -422 -223
-442 2 -3 40 25 83 61 44 37 118 91 165 121 70 45 94 67 132 123 26 37 106
142 178 232 116 147 180 238 201 291 12 29 -15 21 -191 -56z"/>
<path d="M6350 4608 c-50 -20 -278 -89 -390 -118 -272 -70 -472 -103 -698
-116 l-122 -7 -50 -83 c-27 -46 -95 -152 -151 -236 -162 -245 -219 -384 -219
-531 0 -61 2 -67 23 -72 73 -16 165 -27 381 -47 199 -18 310 -22 641 -23 220
0 439 4 486 8 l86 9 6 346 c4 222 13 426 26 567 31 346 32 324 -19 303z m-420
-413 c0 -2 -13 -68 -30 -147 -16 -79 -34 -186 -40 -238 -6 -52 -14 -109 -16
-126 l-4 -31 -92 -7 c-117 -8 -557 -8 -626 1 -54 6 -54 6 -48 37 14 72 44 149
111 281 l70 140 80 7 c160 15 413 50 495 67 102 22 100 22 100 16z"/>
<path d="M4019 4543 c-46 -19 -126 -50 -178 -69 -104 -38 -88 -24 -254 -223
-49 -58 -84 -108 -79 -113 5 -5 51 -20 103 -33 83 -21 447 -139 455 -148 2 -2
-32 -18 -76 -36 l-79 -32 -139 44 c-178 57 -283 82 -314 74 -29 -8 -216 -132
-273 -182 -49 -42 -42 -50 59 -60 98 -9 285 -48 510 -104 l189 -48 61 42 c34
24 100 63 147 89 80 43 88 51 135 123 27 43 72 106 101 140 29 34 54 67 55 73
2 6 -113 50 -261 100 -145 49 -271 92 -280 96 -11 4 12 16 68 35 l84 29 76
-24 c42 -14 140 -45 218 -70 l142 -45 63 25 c100 41 299 147 295 159 -2 5 -17
11 -33 13 -61 6 -384 83 -494 118 -25 8 -84 25 -131 38 l-86 23 -84 -34z"/>
<path d="M4945 4324 c-33 -20 -116 -64 -185 -99 l-125 -63 -91 -113 c-147
-183 -207 -287 -234 -409 -11 -50 -13 -110 -4 -110 3 0 25 13 49 30 23 16 90
54 148 85 103 55 105 57 127 110 25 61 118 208 236 370 115 159 162 235 147
235 -4 0 -35 -16 -68 -36z"/>
</g>
</svg>
